<svg xmlns="http://www.w3.org/2000/svg" width="256" height="256"><path fill="#F4F7F9" d="M96.563 8.098C105.696 13.096 110.955 20.15 114 30q3.188.039 6.375.063l3.586.035c2.958.117 2.958.117 5.039-1.098l-3.375-1.25c-2.337-1.017-3.479-1.573-5.125-3.562-.704-3.079-.4-5.168.5-8.188 2.294-2.647 3.78-2.966 7.25-3.5 7.905 1.054 13.71 6.592 18.75 12.5a105 105 0 0 1 2.063 3.438c1.692 2.787 1.692 2.787 4.562 3.25 3.963-.808 6.904-2.42 10.453-4.313 16.013-7.536 38.306-9.575 55.422-4.812 8.055 3.085 14.082 7.857 18.527 15.25 2.714 6.102 3.265 11.63 3.16 18.187l-.001 2.328c-.028 3.597-.225 6.922-.788 10.488-.397 3.178-.292 4.322 1.04 7.121 5.882 16.39-.544 38.134-5.974 53.911-.531 2.462-.329 3.803.536 6.152a87 87 0 0 0 3.813 4.75C251.362 154.84 251.12 170.436 250 188c-1.708 13.682-10.88 24.288-21 33-22.117 17.16-48.648 24.357-76 28l-2.183.313c-39.7 5.163-86.599-1.987-119.75-25.383A125 125 0 0 1 24 218l-2.172-1.926c-8.355-7.837-15.192-18.937-16.005-30.617-.39-18.177.162-30.931 11.251-45.777 2.518-3.487 2.518-3.487 2.612-7.634l-.612-2.222-.663-2.486-.724-2.65C13.388 108.096 8.033 85.945 17 70c13.265-20.928 37.505-29.625 60.563-34.812C84.356 33.702 91.178 32.35 98 31l-1.5-1.875C95 27 95 27 95 25c-3.58-1.84-7.254-3.375-10.977-4.902C82 19 82 19 80 16c.129-3.611.303-6.071 2.5-9 4.89-1.956 9.318-.935 14.063 1.098M190 39l1.601.563c18.37 6.502 18.37 6.502 24.903 10.59 1.5 1.011 1.5 1.011 3.496.847-1.357-5.596-5.423-8.862-10-12-6.237-2.745-13.991-3.35-20 0"/><path fill="#8A4B38" d="m121.957 46.902 3.37.01 3.486.026 3.544.013q4.322.018 8.643.049c.245 4.952-.126 8.088-2.5 12.438l-1.637 3.093L135 66a887 887 0 0 0-4.312 8.438l-1.06 2.042c-4.025 7.927-5.762 17.76-3.017 26.455 2.651 6.55 5.953 12.43 11.389 17.065 3.627.584 3.627.584 7 0 2.307-1.915 2.307-1.915 2.5-5.187-.595-4.54-1.938-5.91-4.965-9.137-3.886-4.242-5.167-8.517-4.941-14.14 1.472-9.186 6.88-17.381 11.636-25.212 2.957-5.553 4.01-11.123 4.77-17.324 24.213 1.618 52.128 9.57 69 28 1.937 2.892 3.534 5.846 5 9l1 2c1.09 9.848-1.05 16.607-6.84 24.512-10.362 11.936-25.634 17.581-40.285 22.238l-2.613.854c-16.106 4.865-32.875 5.902-49.601 5.787-2.793-.016-5.584 0-8.376.02-15.638.018-30.929-1.658-45.972-6.099l-2.625-.763c-15.108-4.615-33.423-12.812-42.04-26.733-3.45-6.762-4.922-12.844-3-20.347 5.14-14.232 17.52-21.627 30.645-27.836C69.464 54.578 82.643 50 95 50c-1.435 3.767-3.142 7.299-5 10.875-4.956 9.924-6.955 18.97-3.437 29.75C89.196 97.182 93.078 103.052 99 107c2.82.352 4.389.346 6.875-1.062 1.39-2.033 1.39-2.033 1.188-5.188-1.172-4.135-2.657-6.055-5.59-9.074-3.963-4.51-3.904-8.793-3.778-14.602.463-4.668 2.01-8.027 4.305-12.074.316-.56.633-1.121.958-1.7a516 516 0 0 1 4.312-7.516c1.514-2.582 2.78-4.934 3.73-7.784 3.719-.863 7.143-1.117 10.957-1.098"/><path fill="#CBD5DC" d="M233 134c9.019 7.06 14.652 16.76 17 28 1.358 20.215.442 35.748-13.148 51.488C215.282 236.526 183.225 244.975 153 249l-2.183.313c-39.7 5.163-86.599-1.987-119.75-25.383A125 125 0 0 1 24 218l-2.172-1.926c-8.355-7.837-15.192-18.937-16.005-30.617-.408-19.062.4-33.492 13.177-48.457l3-1 1.434 3.594c6.372 15.71 13.359 31.61 25.796 43.547C51 185 51 185 51 187l1.785.805c2.273 1.226 3.793 2.54 5.653 4.32 21.936 19.468 51.373 24.195 79.712 22.767 20.69-1.372 41.162-9.274 56.85-22.892l2.414-1.98C214.75 175.286 224.823 154.809 233 134"/><path fill="#CBD5DB" d="M96.563 8.098C105.696 13.096 110.955 20.15 114 30q3.188.039 6.375.063l3.586.035c2.958.117 2.958.117 5.039-1.098l-3.375-1.25c-2.337-1.017-3.479-1.573-5.125-3.562-.704-3.079-.4-5.168.5-8.188 2.294-2.647 3.78-2.966 7.25-3.5 7.905 1.054 13.71 6.592 18.75 12.5a105 105 0 0 1 2.063 3.438c1.692 2.787 1.692 2.787 4.562 3.25 3.963-.808 6.904-2.42 10.453-4.313 16.013-7.536 38.306-9.575 55.422-4.812 8.055 3.085 14.082 7.857 18.527 15.25 2.714 6.102 3.265 11.63 3.16 18.187l-.001 2.328c-.028 3.593-.224 6.914-.788 10.477-.399 3.201-.262 4.463 1.04 7.32 3.458 9.492 2.096 18.635-1.84 27.746-10.786 21.124-32.605 32.487-54.293 39.727a771 771 0 0 1-5.055 1.59l-2.268.72c-15.215 4.529-30.37 5.606-46.157 5.538a671 671 0 0 0-8.975.052c-34.797.126-70.662-8.987-96.287-33.56-8.362-8.71-13.6-18.696-14.063-31 .51-12.605 6.692-21.526 15.563-30C47.676 40.323 73.55 35.843 98 31l-1.5-1.875C95 27 95 27 95 25c-3.58-1.84-7.254-3.375-10.977-4.902C82 19 82 19 80 16c.129-3.611.303-6.071 2.5-9 4.89-1.956 9.318-.935 14.063 1.098M190 39l1.601.563c18.37 6.502 18.37 6.502 24.903 10.59 1.5 1.011 1.5 1.011 3.496.847-1.357-5.596-5.423-8.862-10-12-6.237-2.745-13.991-3.35-20 0m-79 9c-1.744 2.432-1.744 2.432-3 5.5-2.132 4.621-4.376 9.06-6.922 13.465C97.743 73.26 96.95 78.93 98 86c1.588 3.387 3.622 6.13 6 9 2.954 3.683 2.954 3.683 3.375 6.563C107 104 107 104 105.938 105.875 104 107 104 107 100.688 107.125c-5.614-1.713-7.98-5.213-10.88-10.156A88 88 0 0 1 87 91l-1.25-2.812c-2.58-10.97.283-21.057 5.695-30.786A244 244 0 0 1 95 52v-2c-21.55 1.994-46.027 9.588-61 26-5.289 7.46-8.035 13.799-7 23 3.1 11.02 12.064 19.393 21.724 25.001 19.94 11.003 42.913 17.033 65.706 17.237l2.725.03c34.762.303 75.806-.867 102.845-26.268 6.537-7.255 9.646-14.218 9.34-24.078C228.38 82.67 222.918 76.51 217 71c-17.07-12.848-41.384-22.51-63-22l-.191 2.168C152.726 59.978 149.5 66.434 145 74c-6.554 11.257-6.554 11.257-7 24 1.95 4.246 4.24 8.358 7.68 11.566C147 111 147 111 147.312 114.562 147 118 147 118 145 120c-3.187.625-3.187.625-7 0-6.006-4.578-9.946-11.851-12-19-1.722-14.547 3.043-24.609 10-37a317 317 0 0 0 2.938-5.375l1.214-2.21c1.123-3.198.983-6.055.848-9.415-4.062-.03-8.125-.047-12.187-.062l-3.487-.026-3.369-.01-3.094-.016c-2.769.11-5.2.345-7.863 1.114"/><path fill="#D79D81" d="M96.563 8.098C105.696 13.096 110.955 20.15 114 30q3.188.039 6.375.063l3.586.035c2.958.117 2.958.117 5.039-1.098l-3.375-1.25c-2.337-1.017-3.479-1.573-5.125-3.562-.704-3.079-.4-5.168.5-8.188 2.294-2.647 3.78-2.966 7.25-3.5 7.746 1.033 13.992 6.488 18.75 12.5 4.46 7.432 7.285 14.572 7.313 23.313l.05 3.738c-.766 8.335-4.249 15.005-8.425 22.136-6.512 11.17-6.512 11.17-6.938 23.813 1.951 4.247 4.242 8.353 7.676 11.57C148 111 148 111 148.375 114.5c-.375 3.5-.375 3.5-1.437 5.438-3.374 1.85-5.138 1.81-8.938 1.062-7.247-5.734-12.33-14.292-13.406-23.46C124.25 84.313 128.649 75.337 135 64a338 338 0 0 0 2.875-5.375l1.18-2.21C140.369 53.33 140.369 53.33 141 47l-30 1-1 5a123 123 0 0 1-3.875 6.313C100.595 68.078 97.238 75.357 99 86c1.597 3.38 3.623 6.13 6 9 2.946 3.689 2.946 3.689 3.438 6.5-.438 2.5-.438 2.5-2 4.875C104 108 104 108 100.688 108.25c-6.473-2.194-9.923-7.46-13-13.375A158 158 0 0 1 86 91l-1.25-2.812c-3.159-13.426 2.07-25.056 9-36.313l1.215-1.901C98.5 44.43 99.985 39.646 99 33c-1.884-3.328-1.884-3.328-4-6v-2c-3.58-1.84-7.254-3.375-10.977-4.902C82 19 82 19 80 16c.129-3.611.303-6.071 2.5-9 4.89-1.956 9.318-.935 14.063 1.098"/><path fill="#99AAB5" d="M249 175h1c.92 15.602-3.01 26.745-13.148 38.488C215.282 236.526 183.225 244.975 153 249l-2.183.313c-39.7 5.163-86.599-1.987-119.75-25.383A125 125 0 0 1 24 218l-2.172-1.926c-8.397-7.876-15.543-19.278-15.926-31.09l.035-3.234.028-3.266L6 176h2l.664 2.09c2.274 6.738 5.032 12.256 9.336 17.91.478.655.956 1.31 1.45 1.984C33.003 215.057 56.496 223.923 77 229l4.234 1.113c44.654 11.467 96.351 6.03 136.711-16.633 13.311-7.877 23.51-18.918 29.055-33.48l1.25-3.062z"/><path fill="#D89D81" d="M132 13c11.075 4.905 16.854 13.97 21.117 24.852 1.01 3.6 1.184 6.724 1.196 10.46l.05 3.739c-.766 8.335-4.249 15.005-8.425 22.136-6.512 11.17-6.512 11.17-6.938 23.813 1.951 4.247 4.242 8.353 7.676 11.57C148 111 148 111 148.375 114.5c-.375 3.5-.375 3.5-1.437 5.438-3.374 1.85-5.138 1.81-8.938 1.062-7.247-5.734-12.33-14.292-13.406-23.46-.366-14.047 4.733-24.352 12.008-36.134C140.563 54.59 140.894 48.652 139 41c-2.663-5.91-6.235-9.933-12-13l-2.75-1c-2.25-1-2.25-1-3.625-2.75-.868-3.124-.547-5.155.375-8.25 3.166-3.653 6.382-3.616 11-3"/><path fill="#CCD5DC" d="M133 31c1.863 1.777 1.863 1.777 3.313 3.938l1.488 2.152C140.298 41.067 140 41.469 140 47h-28l2-16c14.288-1.312 14.288-1.312 19 0"/></svg>