<?xml version="1.0" encoding="UTF-8"?>
<svg version="1.1" xmlns="http://www.w3.org/2000/svg" width="256" height="256">
<path d="M0 0 C9.13378942 4.99852195 14.39285066 12.05200764 17.4375 21.90234375 C19.56243141 21.9292795 21.68745912 21.94871003 23.8125 21.96484375 C24.99585937 21.97644531 26.17921875 21.98804687 27.3984375 22 C30.35671521 22.11700968 30.35671521 22.11700968 32.4375 20.90234375 C31.32375 20.48984375 30.21 20.07734375 29.0625 19.65234375 C26.72510577 18.63505679 25.58366088 18.07895481 23.9375 16.08984375 C23.23388157 13.01151311 23.53793799 10.92230194 24.4375 7.90234375 C26.73142392 5.25550846 28.21732049 4.93621752 31.6875 4.40234375 C39.59206139 5.45628527 45.39728118 10.99401527 50.4375 16.90234375 C51.14571628 18.0354898 51.83555768 19.1804876 52.5 20.33984375 C54.19230827 23.12743619 54.19230827 23.12743619 57.0625 23.58984375 C61.02546789 22.78257251 63.96674482 21.17007985 67.515625 19.27734375 C83.52879633 11.74173371 105.82161066 9.70251544 122.9375 14.46484375 C130.99214022 17.55029061 137.0198823 22.32250642 141.46484375 29.71484375 C144.17839745 35.81761512 144.7295072 41.34589219 144.625 47.90234375 C144.6240332 49.05476563 144.6240332 49.05476563 144.62304688 50.23046875 C144.59551887 53.82746117 144.39808036 57.15242806 143.8359375 60.71875 C143.43825197 63.89633539 143.54311502 65.03992555 144.875 67.83984375 C150.75785572 84.2297534 144.33127967 105.97334346 138.90161133 121.75048828 C138.37053611 124.21282229 138.57257805 125.55381901 139.4375 127.90234375 C140.6485508 129.53185833 141.92771346 131.11172047 143.25 132.65234375 C154.79950092 146.74314809 154.55725214 162.33855892 153.4375 179.90234375 C151.72901527 193.58467577 142.55836395 204.19054252 132.4375 212.90234375 C110.32050817 230.06285769 83.78954108 237.25954448 56.4375 240.90234375 C55.71723633 241.00546875 54.99697266 241.10859375 54.25488281 241.21484375 C14.55462499 246.37790561 -32.34432981 239.22808303 -65.49609375 215.83203125 C-67.93970012 213.93516785 -70.26483657 211.97272033 -72.5625 209.90234375 C-73.27921875 209.26683594 -73.9959375 208.63132813 -74.734375 207.9765625 C-83.08972147 200.1394988 -89.92644589 189.03959005 -90.73950195 177.35961914 C-91.12902152 159.18255647 -90.57741834 146.42804458 -79.48828125 131.58203125 C-76.97099502 128.09523143 -76.97099502 128.09523143 -76.8762207 123.94799805 C-77.07820068 123.21492432 -77.28018066 122.48185059 -77.48828125 121.7265625 C-77.70718018 120.90599365 -77.9260791 120.0854248 -78.15161133 119.23999023 C-78.39032959 118.36544189 -78.62904785 117.49089355 -78.875 116.58984375 C-83.17571226 99.99800062 -88.53003749 77.84758053 -79.5625 61.90234375 C-66.29782185 40.97439299 -42.05726808 32.2769464 -19 27.08984375 C-12.20610742 25.60444732 -5.38415871 24.25350238 1.4375 22.90234375 C0.9425 22.28359375 0.4475 21.66484375 -0.0625 21.02734375 C-1.5625 18.90234375 -1.5625 18.90234375 -1.5625 16.90234375 C-5.14335329 15.06286432 -8.8165866 13.52732815 -12.5390625 12 C-14.5625 10.90234375 -14.5625 10.90234375 -16.5625 7.90234375 C-16.43352878 4.29114965 -16.25904739 1.8310736 -14.0625 -1.09765625 C-9.17242517 -3.05368618 -4.74428643 -2.03223245 0 0 Z M93.4375 30.90234375 C93.96593506 31.08821045 94.49437012 31.27407715 95.03881836 31.46557617 C113.40885601 37.96691461 113.40885601 37.96691461 119.94140625 42.0546875 C121.44092823 43.06666217 121.44092823 43.06666217 123.4375 42.90234375 C122.08083137 37.30608566 118.01484665 34.04017149 113.4375 30.90234375 C107.20081991 28.15724132 99.44607896 27.55242805 93.4375 30.90234375 Z " fill="#F4F7F9" transform="translate(96.5625,8.09765625)"/>
<path d="M0 0 C1.11181641 0.00322266 2.22363281 0.00644531 3.36914062 0.00976562 C4.51962891 0.01814453 5.67011719 0.02652344 6.85546875 0.03515625 C8.02529297 0.03966797 9.19511719 0.04417969 10.40039062 0.04882812 C13.28130233 0.06058695 16.16210919 0.07702199 19.04296875 0.09765625 C19.28779125 5.04919134 18.91650344 8.18578019 16.54296875 12.53515625 C15.73279297 14.0665625 15.73279297 14.0665625 14.90625 15.62890625 C14.29136719 16.77359375 13.67648438 17.91828125 13.04296875 19.09765625 C11.58671622 21.90079046 10.15667894 24.71664712 8.73046875 27.53515625 C8.20646484 28.54630493 8.20646484 28.54630493 7.671875 29.57788086 C3.64549935 37.50480792 1.90860378 47.33798078 4.65380859 56.03222656 C7.30517485 62.58305344 10.6068832 68.46249867 16.04296875 73.09765625 C19.66990257 73.68180327 19.66990257 73.68180327 23.04296875 73.09765625 C25.35016025 71.18312198 25.35016025 71.18312198 25.54296875 67.91015625 C24.94752244 63.3698781 23.60450962 62.00015018 20.578125 58.7734375 C16.69245068 54.53182355 15.41139265 50.25657641 15.63671875 44.6328125 C17.10866268 35.44731625 22.51687632 27.25246616 27.2734375 19.421875 C30.22970104 13.86827617 31.28366079 8.29867124 32.04296875 2.09765625 C56.25559978 3.71555095 84.17086057 11.66708024 101.04296875 30.09765625 C102.98043027 32.9899433 104.57719745 35.94363051 106.04296875 39.09765625 C106.37296875 39.75765625 106.70296875 40.41765625 107.04296875 41.09765625 C108.13367355 50.9451624 105.99319092 57.70489011 100.203125 65.609375 C89.84118935 77.54527556 74.56870987 83.19094147 59.91796875 87.84765625 C59.05582764 88.12947754 58.19368652 88.41129883 57.30541992 88.70166016 C41.19934482 93.56644706 24.42962926 94.60331117 7.70361328 94.48876953 C4.91129062 94.47261762 2.12040586 94.48877755 -0.671875 94.5078125 C-16.31049453 94.52694373 -31.60085775 92.85049642 -46.64453125 88.41015625 C-47.51045898 88.15814453 -48.37638672 87.90613281 -49.26855469 87.64648438 C-64.37653693 83.03123768 -82.69244685 74.8343692 -91.30859375 60.9140625 C-94.758214 54.15131776 -96.23081304 48.07000927 -94.30859375 40.56640625 C-89.16919054 26.33421273 -76.78957548 18.93983927 -63.6640625 12.73046875 C-52.49261497 7.67538135 -39.31313525 3.09765625 -26.95703125 3.09765625 C-28.39226214 6.86513733 -30.09921626 10.39636239 -31.95703125 13.97265625 C-36.91322013 23.89712228 -38.91252139 32.94220579 -35.39453125 43.72265625 C-32.76060897 50.27924136 -28.87924685 56.14951252 -22.95703125 60.09765625 C-20.13764228 60.45007987 -18.56843048 60.44411582 -16.08203125 59.03515625 C-14.69217043 57.00247844 -14.69217043 57.00247844 -14.89453125 53.84765625 C-16.06625169 49.71217235 -17.55115042 47.79314536 -20.484375 44.7734375 C-24.44702117 40.26421944 -24.3878396 35.9804408 -24.26171875 30.171875 C-23.79906023 25.50376913 -22.25224677 22.14431722 -19.95703125 18.09765625 C-19.64072754 17.53691406 -19.32442383 16.97617187 -18.99853516 16.3984375 C-17.57695787 13.88349132 -16.15116547 11.37208884 -14.6875 8.88134766 C-13.17293759 6.29951012 -11.90718237 3.94810961 -10.95703125 1.09765625 C-7.23814259 0.23439615 -3.81406637 -0.01955931 0 0 Z " fill="#8A4B38" transform="translate(121.95703125,46.90234375)"/>
<path d="M0 0 C9.01872658 7.05979302 14.65233501 16.75931297 17 28 C18.35817428 48.21525338 17.44210651 63.74796028 3.8515625 79.48828125 C-17.71742094 102.52624861 -49.77518806 110.97459939 -80 115 C-80.72026367 115.103125 -81.44052734 115.20625 -82.18261719 115.3125 C-121.88287501 120.47556186 -168.78182981 113.32573928 -201.93359375 89.9296875 C-204.37720012 88.0328241 -206.70233657 86.07037658 -209 84 C-209.71671875 83.36449219 -210.4334375 82.72898437 -211.171875 82.07421875 C-219.52722147 74.23715505 -226.36394589 63.1372463 -227.17700195 51.45727539 C-227.58549292 32.39490601 -226.7765538 17.96480334 -214 3 C-213.01 2.67 -212.02 2.34 -211 2 C-210.52691406 3.1859375 -210.05382812 4.371875 -209.56640625 5.59375 C-203.19401948 21.3043603 -196.20734976 37.20380443 -183.76953125 49.140625 C-182 51 -182 51 -182 53 C-181.11634766 53.39832031 -181.11634766 53.39832031 -180.21484375 53.8046875 C-177.94187646 55.03136826 -176.42206649 56.3441234 -174.5625 58.125 C-152.6257252 77.59287579 -123.18871016 82.32043917 -94.85009766 80.89160156 C-74.16057798 79.51997601 -53.68822765 71.61784816 -38 58 C-37.20335937 57.34644531 -36.40671875 56.69289062 -35.5859375 56.01953125 C-18.24970132 41.28641413 -8.17728392 20.80867501 0 0 Z " fill="#CBD5DC" transform="translate(233,134)"/>
<path d="M0 0 C9.13378942 4.99852195 14.39285066 12.05200764 17.4375 21.90234375 C19.56243141 21.9292795 21.68745912 21.94871003 23.8125 21.96484375 C24.99585937 21.97644531 26.17921875 21.98804687 27.3984375 22 C30.35671521 22.11700968 30.35671521 22.11700968 32.4375 20.90234375 C31.32375 20.48984375 30.21 20.07734375 29.0625 19.65234375 C26.72510577 18.63505679 25.58366088 18.07895481 23.9375 16.08984375 C23.23388157 13.01151311 23.53793799 10.92230194 24.4375 7.90234375 C26.73142392 5.25550846 28.21732049 4.93621752 31.6875 4.40234375 C39.59206139 5.45628527 45.39728118 10.99401527 50.4375 16.90234375 C51.14571628 18.0354898 51.83555768 19.1804876 52.5 20.33984375 C54.19230827 23.12743619 54.19230827 23.12743619 57.0625 23.58984375 C61.02546789 22.78257251 63.96674482 21.17007985 67.515625 19.27734375 C83.52879633 11.74173371 105.82161066 9.70251544 122.9375 14.46484375 C130.99214022 17.55029061 137.0198823 22.32250642 141.46484375 29.71484375 C144.17839745 35.81761512 144.7295072 41.34589219 144.625 47.90234375 C144.6240332 49.05476563 144.6240332 49.05476563 144.62304688 50.23046875 C144.59554723 53.8237557 144.39918106 57.14469858 143.8359375 60.70703125 C143.43670487 63.9087204 143.57371214 65.17029396 144.875 68.02734375 C148.33384071 77.51904616 146.97116849 86.66250109 143.03515625 95.7734375 C132.24907635 116.89727612 110.43029039 128.26042552 88.7421875 135.5 C87.05911625 136.03571441 85.3742122 136.56570569 83.6875 137.08984375 C82.93903809 137.32783691 82.19057617 137.56583008 81.41943359 137.81103516 C66.20448232 142.33903004 51.04956733 143.41627647 35.26245117 143.34838867 C32.26996391 143.33990038 29.27940897 143.36873776 26.28710938 143.40039062 C-8.50955931 143.52670176 -44.37488177 134.41290434 -70 109.83984375 C-78.36114127 101.130879 -83.59967746 91.14453961 -84.0625 78.83984375 C-83.55240731 66.23561791 -77.37048007 57.31461467 -68.5 48.83984375 C-48.88683017 32.22633519 -23.01293189 27.7452146 1.4375 22.90234375 C0.9425 22.28359375 0.4475 21.66484375 -0.0625 21.02734375 C-1.5625 18.90234375 -1.5625 18.90234375 -1.5625 16.90234375 C-5.14335329 15.06286432 -8.8165866 13.52732815 -12.5390625 12 C-14.5625 10.90234375 -14.5625 10.90234375 -16.5625 7.90234375 C-16.43352878 4.29114965 -16.25904739 1.8310736 -14.0625 -1.09765625 C-9.17242517 -3.05368618 -4.74428643 -2.03223245 0 0 Z M93.4375 30.90234375 C93.96593506 31.08821045 94.49437012 31.27407715 95.03881836 31.46557617 C113.40885601 37.96691461 113.40885601 37.96691461 119.94140625 42.0546875 C121.44092823 43.06666217 121.44092823 43.06666217 123.4375 42.90234375 C122.08083137 37.30608566 118.01484665 34.04017149 113.4375 30.90234375 C107.20081991 28.15724132 99.44607896 27.55242805 93.4375 30.90234375 Z M14.4375 39.90234375 C12.69325024 42.33398953 12.69325024 42.33398953 11.4375 45.40234375 C9.3055357 50.02343132 7.06160349 54.46264471 4.515625 58.8671875 C1.18026422 65.16328521 0.38783033 70.83277366 1.4375 77.90234375 C3.02564287 81.28904589 5.0594021 84.03242511 7.4375 86.90234375 C10.39118245 90.58584052 10.39118245 90.58584052 10.8125 93.46484375 C10.4375 95.90234375 10.4375 95.90234375 9.375 97.77734375 C7.4375 98.90234375 7.4375 98.90234375 4.125 99.02734375 C-1.48898098 97.31460379 -3.85457329 93.8142188 -6.75390625 88.87109375 C-7.77614223 86.90960774 -8.6893752 84.93403799 -9.5625 82.90234375 C-9.975 81.97421875 -10.3875 81.04609375 -10.8125 80.08984375 C-13.39343614 69.12086516 -10.5298848 59.03291372 -5.1171875 49.3046875 C-3.96137244 47.48510436 -2.7661594 45.69063771 -1.5625 43.90234375 C-1.5625 43.24234375 -1.5625 42.58234375 -1.5625 41.90234375 C-23.11230288 43.89650461 -47.58934934 51.49072446 -62.5625 67.90234375 C-67.8514641 75.36232369 -70.59799791 81.70120522 -69.5625 90.90234375 C-66.46179002 101.92293946 -57.49827689 110.29505329 -47.83837891 115.90332031 C-27.89813621 126.90590427 -4.92563703 132.93641833 17.8671875 133.140625 C19.21609573 133.15545174 19.21609573 133.15545174 20.59225464 133.170578 C55.35425554 133.47370998 96.39808256 132.30300862 123.4375 106.90234375 C129.97441929 99.64708168 133.08394831 92.68462144 132.77734375 82.82421875 C131.8175859 74.57250754 126.35529445 68.41235741 120.4375 62.90234375 C103.36827359 50.05453893 79.05354645 40.39234628 57.4375 40.90234375 C57.37433594 41.61777344 57.31117188 42.33320312 57.24609375 43.0703125 C56.16334766 51.88044644 52.93827155 58.33639158 48.4375 65.90234375 C41.88339539 77.15901485 41.88339539 77.15901485 41.4375 89.90234375 C43.3879925 94.14789524 45.67658655 98.26018958 49.1171875 101.46875 C50.4375 102.90234375 50.4375 102.90234375 50.75 106.46484375 C50.4375 109.90234375 50.4375 109.90234375 48.4375 111.90234375 C45.25 112.52734375 45.25 112.52734375 41.4375 111.90234375 C35.43140152 107.32444703 31.49175073 100.05113628 29.4375 92.90234375 C27.71550222 78.35556254 32.48087753 68.29335183 39.4375 55.90234375 C40.43307527 54.11974265 41.41402357 52.32883233 42.375 50.52734375 C42.77589844 49.79773437 43.17679687 49.068125 43.58984375 48.31640625 C44.71238701 45.11948582 44.57240001 42.26258029 44.4375 38.90234375 C40.37501511 38.87324606 36.31255714 38.85551201 32.25 38.83984375 C31.09951172 38.83146484 29.94902344 38.82308594 28.76367188 38.81445312 C27.65185547 38.81123047 26.54003906 38.80800781 25.39453125 38.8046875 C23.86276245 38.79683228 23.86276245 38.79683228 22.30004883 38.78881836 C19.5319002 38.89859995 17.09955209 39.13296959 14.4375 39.90234375 Z " fill="#CBD5DB" transform="translate(96.5625,8.09765625)"/>
<path d="M0 0 C9.13378942 4.99852195 14.39285066 12.05200764 17.4375 21.90234375 C19.56243141 21.9292795 21.68745912 21.94871003 23.8125 21.96484375 C24.99585938 21.97644531 26.17921875 21.98804687 27.3984375 22 C30.35671521 22.11700968 30.35671521 22.11700968 32.4375 20.90234375 C30.766875 20.28359375 30.766875 20.28359375 29.0625 19.65234375 C26.72510577 18.63505679 25.58366088 18.07895481 23.9375 16.08984375 C23.23388157 13.01151311 23.53793799 10.92230194 24.4375 7.90234375 C26.73142392 5.25550846 28.21732049 4.93621752 31.6875 4.40234375 C39.43361972 5.43515971 45.67921481 10.89065661 50.4375 16.90234375 C54.89691936 24.33470934 57.72277008 31.47403991 57.75 40.21484375 C57.76675781 41.44847656 57.78351563 42.68210938 57.80078125 43.953125 C57.03407634 52.28794929 53.55162353 58.95857824 49.375 66.08984375 C42.86358751 77.25995749 42.86358751 77.25995749 42.4375 89.90234375 C44.38857808 94.14916985 46.67991958 98.25538028 50.11328125 101.47265625 C51.4375 102.90234375 51.4375 102.90234375 51.8125 106.40234375 C51.4375 109.90234375 51.4375 109.90234375 50.375 111.83984375 C47.00194611 113.68958298 45.23702914 113.64979211 41.4375 112.90234375 C34.19061097 107.16808811 29.10746506 98.60993072 28.03125 89.44140625 C27.6870062 76.21670709 32.08610641 67.24013844 38.4375 55.90234375 C39.41115854 54.11895897 40.37113265 52.32798245 41.3125 50.52734375 C41.70179688 49.79773437 42.09109375 49.068125 42.4921875 48.31640625 C43.80610957 45.2327173 43.80610957 45.2327173 44.4375 38.90234375 C34.5375 39.23234375 24.6375 39.56234375 14.4375 39.90234375 C14.1075 41.55234375 13.7775 43.20234375 13.4375 44.90234375 C12.21312839 47.04636668 10.91372083 49.1484163 9.5625 51.21484375 C4.03203427 59.97999455 0.67536869 67.25963007 2.4375 77.90234375 C4.03493084 81.28307002 6.06007322 84.03323504 8.4375 86.90234375 C11.38304159 90.59115285 11.38304159 90.59115285 11.875 93.40234375 C11.4375 95.90234375 11.4375 95.90234375 9.875 98.27734375 C7.4375 99.90234375 7.4375 99.90234375 4.125 100.15234375 C-2.34789361 97.95814253 -5.7977746 92.6924548 -8.875 86.77734375 C-9.45385811 85.49292469 -10.0181172 84.20174992 -10.5625 82.90234375 C-10.975 81.97421875 -11.3875 81.04609375 -11.8125 80.08984375 C-14.97138941 66.66456375 -9.7429177 55.03462331 -2.8125 43.77734375 C-2.41168213 43.14989258 -2.01086426 42.52244141 -1.59790039 41.87597656 C1.93874497 36.3337991 3.4216479 31.54853737 2.4375 24.90234375 C0.55336085 21.57426136 0.55336085 21.57426136 -1.5625 18.90234375 C-1.5625 18.24234375 -1.5625 17.58234375 -1.5625 16.90234375 C-5.14335329 15.06286432 -8.8165866 13.52732815 -12.5390625 12 C-14.5625 10.90234375 -14.5625 10.90234375 -16.5625 7.90234375 C-16.43352878 4.29114965 -16.25904739 1.8310736 -14.0625 -1.09765625 C-9.17242517 -3.05368618 -4.74428643 -2.03223245 0 0 Z " fill="#D79D81" transform="translate(96.5625,8.09765625)"/>
<path d="M0 0 C0.33 0 0.66 0 1 0 C1.91927425 15.60212691 -2.0090631 26.74504217 -12.1484375 38.48828125 C-33.71742094 61.52624861 -65.77518806 69.97459939 -96 74 C-96.72026367 74.103125 -97.44052734 74.20625 -98.18261719 74.3125 C-137.88287501 79.47556186 -184.78182981 72.32573928 -217.93359375 48.9296875 C-220.37720012 47.0328241 -222.70233657 45.07037658 -225 43 C-225.71671875 42.36449219 -226.4334375 41.72898438 -227.171875 41.07421875 C-235.56914875 33.19782852 -242.71515803 21.7959199 -243.09765625 9.984375 C-243.08605469 8.91703125 -243.07445312 7.8496875 -243.0625 6.75 C-243.04896484 5.13351563 -243.04896484 5.13351563 -243.03515625 3.484375 C-243.02355469 2.66453125 -243.01195312 1.8446875 -243 1 C-242.34 1 -241.68 1 -241 1 C-240.78085938 1.68964844 -240.56171875 2.37929687 -240.3359375 3.08984375 C-238.06214033 9.82804755 -235.30363137 15.34559382 -231 21 C-230.52175781 21.65484375 -230.04351562 22.3096875 -229.55078125 22.984375 C-215.99550474 40.05651167 -192.50301035 48.92283275 -172 54 C-170.58840168 54.37056091 -169.17694446 54.74165971 -167.765625 55.11328125 C-123.11201915 66.58026575 -71.41500299 61.14225312 -31.0546875 38.48046875 C-17.74379931 30.60291755 -7.54454345 19.56172201 -2 5 C-1.5875 3.989375 -1.175 2.97875 -0.75 1.9375 C-0.37875 0.9784375 -0.37875 0.9784375 0 0 Z " fill="#99AAB5" transform="translate(249,175)"/>
<path d="M0 0 C11.07549094 4.90548319 16.85375786 13.96938196 21.1171875 24.8515625 C22.12656451 28.45137609 22.30085963 31.57594188 22.3125 35.3125 C22.32925781 36.54613281 22.34601563 37.77976563 22.36328125 39.05078125 C21.59657634 47.38560554 18.11412353 54.05623449 13.9375 61.1875 C7.42608751 72.35761374 7.42608751 72.35761374 7 85 C8.95107808 89.2468261 11.24241958 93.35303653 14.67578125 96.5703125 C16 98 16 98 16.375 101.5 C16 105 16 105 14.9375 106.9375 C11.56444611 108.78723923 9.79952914 108.74744836 6 108 C-1.24688903 102.26574436 -6.33003494 93.70758697 -7.40625 84.5390625 C-7.77187168 70.49309641 -2.67315138 60.18773785 4.6015625 48.40625 C8.56314656 41.5896696 8.89390447 35.65213926 7 28 C4.33729907 22.09052181 0.7653683 18.06668527 -5 15 C-5.9075 14.67 -6.815 14.34 -7.75 14 C-10 13 -10 13 -11.375 11.25 C-12.24273921 8.12613883 -11.9220483 6.09544787 -11 3 C-7.83373991 -0.65337703 -4.61838276 -0.61578437 0 0 Z " fill="#D89D81" transform="translate(132,13)"/>
<path d="M0 0 C1.86328125 1.77734375 1.86328125 1.77734375 3.3125 3.9375 C3.80363281 4.64777344 4.29476562 5.35804687 4.80078125 6.08984375 C7.29779477 10.06717148 7 10.46865645 7 16 C-2.24 16 -11.48 16 -21 16 C-20.34 10.72 -19.68 5.44 -19 0 C-4.71189397 -1.312173 -4.71189397 -1.312173 0 0 Z " fill="#CCD5DC" transform="translate(133,31)"/>
</svg>
